<?xml version="1.0" encoding="UTF-8" standalone="no"?>
<svg
   xmlns:dc="http://purl.org/dc/elements/1.1/"
   xmlns:cc="http://creativecommons.org/ns#"
   xmlns:rdf="http://www.w3.org/1999/02/22-rdf-syntax-ns#"
   xmlns:svg="http://www.w3.org/2000/svg"
   xmlns="http://www.w3.org/2000/svg"
   id="svg2334"
   version="1.1"
   viewBox="0 0 90 90"
   height="90mm"
   width="90mm">
  <defs
     id="defs2328" />
  <metadata
     id="metadata2331">
    <rdf:RDF>
      <cc:Work
         rdf:about="">
        <dc:format>image/svg+xml</dc:format>
        <dc:type
           rdf:resource="http://purl.org/dc/dcmitype/StillImage" />
        <dc:title></dc:title>
      </cc:Work>
    </rdf:RDF>
  </metadata>
  <g
     transform="translate(0,-207)"
     id="layer1">
    <g
       id="g5275"
       transform="matrix(0.35277777,0,0,-0.35277777,-160.63851,335.2931)">
      <path
         id="path142"
         style="fill:#28292a;fill-opacity:1;fill-rule:nonzero;stroke:none;stroke-width:0.1"
         d="m 645.948,206.15 c -4.676,-25.57 -31.53,-20.27 -38.764,-14.9 -7.234,5.37 -9.536,18.08 -9.865,24.22 -0.328,6.14 7.125,13.81 21.812,14.91 14.687,1.09 24.881,-3.84 27.402,-6.69 2.521,-2.85 0.329,-12.54 -0.585,-17.54 z m -79.611,-14.9 c -7.234,-5.37 -34.087,-10.67 -38.764,14.9 -0.913,5 -3.105,14.69 -0.584,17.54 2.521,2.85 12.714,7.78 27.401,6.69 14.688,-1.1 22.141,-8.77 21.812,-14.91 -0.329,-6.14 -2.631,-18.85 -9.865,-24.22 z m 89.834,37.88 c -4.315,2.49 -17.86,9.08 -36.967,6.69 -15.722,-1.96 -24.97,-5.32 -29.341,-7.3 -0.989,-0.45 -2.046,-0.68 -3.102,-0.68 -1.057,0 -2.113,0.23 -3.102,0.68 -4.372,1.98 -13.619,5.34 -29.342,7.3 -19.107,2.39 -32.651,-4.2 -36.966,-6.69 -0.888,-0.51 -1.334,-1.54 -1.12,-2.54 l 1.504,-7.06 c 0.27,-1.26 1.5,-2.08 2.769,-1.83 l 0.785,0.15 c 0,0 2.24,-12.46 4.703,-19.43 4.133,-11.7 15.903,-16.67 28.764,-15.21 12.86,1.46 17.244,6.28 21.483,15.2 4.238,8.91 5.115,14.9 10.522,15.05 5.407,-0.15 6.284,-6.14 10.522,-15.05 4.238,-8.92 8.622,-13.74 21.483,-15.2 12.86,-1.46 24.631,3.51 28.763,15.21 2.463,6.97 4.703,19.43 4.703,19.43 l 0.786,-0.15 c 1.269,-0.25 2.499,0.57 2.768,1.83 l 1.505,7.06 c 0.214,1 -0.232,2.03 -1.12,2.54" />
      <path
         id="path144"
         style="fill:#28292a;fill-opacity:1;fill-rule:nonzero;stroke:none;stroke-width:0.1"
         d="m 573.86,186.28 c -0.693,0.56 -2.092,-0.69 -2.203,-3.32 -0.11,-2.63 2.424,-4.39 4.076,-4.61 1.652,-0.22 1.541,0.77 0.55,0.88 -0.991,0.11 -2.643,2.98 -2.643,4.3 0,1.32 0.771,2.31 0.22,2.75" />
      <path
         id="path146"
         style="fill:#28292a;fill-opacity:1;fill-rule:nonzero;stroke:none;stroke-width:0.1"
         d="m 577.887,181.55 c -0.511,0.06 -0.833,-1.66 1.039,-2.76 1.873,-1.1 5.838,-1.98 8.261,-1.98 2.423,0 5.617,1.99 4.735,2.37 -0.88,0.38 -2.092,-1 -5.286,-0.86 -3.194,0.14 -6.718,0.91 -7.269,1.79 -0.551,0.89 -0.537,1.33 -1.48,1.44" />
      <path
         id="path148"
         style="fill:#28292a;fill-opacity:1;fill-rule:nonzero;stroke:none;stroke-width:0.1"
         d="m 596.328,188.6 c -0.837,0.35 -2.753,-1.77 -0.771,-2.76 1.982,-0.99 2.423,-1.58 1.872,-2.88 -0.55,-1.3 -0.003,-2.96 0.219,-2.74 0.222,0.23 3.085,1.33 2.425,3.2 -0.661,1.87 -1.652,4.29 -3.745,5.18" />
      <path
         id="path150"
         style="fill:#28292a;fill-opacity:1;fill-rule:nonzero;stroke:none;stroke-width:0.1"
         d="m 582.233,205.67 c -1.294,-1.43 -3.971,-12.78 -4.959,-15.31 -0.988,-2.54 -0.774,-3.09 0,-3.2 0.774,-0.11 1.214,2.32 2.866,8.04 1.652,5.73 3.194,11.68 2.093,10.47" />
      <path
         id="path152"
         style="fill:#28292a;fill-opacity:1;fill-rule:nonzero;stroke:none;stroke-width:0.1"
         d="m 606.71,138.04 c -4.516,-4.07 -12.115,-3.3 -12.225,-1.65 -0.11,1.65 3.084,12.34 0.771,13.55 -2.313,1.21 -8.495,1.98 -8.495,1.98 0,0 -6.183,-0.77 -8.495,-1.98 -2.313,-1.21 0.881,-11.9 0.771,-13.55 -0.111,-1.65 -7.71,-2.42 -12.226,1.65 -4.515,4.08 -0.55,17.29 0,19.17 0.551,1.87 8.701,4.62 10.681,4.84 1.979,0.22 6.721,-0.33 9.269,-0.55 2.547,0.22 7.289,0.77 9.268,0.55 1.98,-0.22 10.13,-2.97 10.681,-4.84 0.551,-1.88 4.516,-15.09 0,-19.17 z m -88.358,38 c 0,0 -2.203,1.43 -4.296,3.14 -2.092,1.71 -2.643,3.8 -2.973,5.78 -0.331,1.98 -1.873,20.71 -2.313,26.21 -0.441,5.51 0.771,5.4 2.753,5.4 1.983,0 6.829,-3.74 6.829,-3.74 0.021,-2.12 0.33,-12.34 0.55,-21.26 0.221,-8.92 -0.55,-15.53 -0.55,-15.53 z m 142.846,44.16 c -0.991,1.11 -3.523,2.76 -3.855,1.66 -0.089,-0.3 -0.148,-0.79 -0.215,-1.33 0.744,-0.1 1.451,-0.21 1.867,-0.33 1.212,-0.33 0.992,-3.96 0.992,-11.89 0,-7.93 -1.432,-19.82 -1.873,-23.89 -0.44,-4.07 -5.396,-4.75 -5.912,-4.75 -0.514,0 -0.586,11.02 -0.696,15.97 -0.11,4.96 0.696,17.55 0.696,17.55 v 0 c -0.779,-3.99 -2.118,-10.58 -3.009,-13.47 -1.321,-4.3 -2.643,-6.83 -2.643,-6.83 0,0 -4.406,-35.9 -17.622,-37.34 -13.216,-1.43 -10.573,14.1 -12.335,14.65 -1.762,0.55 -16.745,1.66 -20.159,1.55 -3.414,-0.11 -9.673,-1.77 -9.673,-1.77 0,0 -9.487,2.43 -11.028,2.43 -1.542,0 -17.01,-1.69 -18.663,-2.35 -1.652,-0.66 -4.246,-16.82 -10.193,-16.71 -5.947,0.11 -13.877,6.72 -16.631,19.28 -2.753,12.55 -3.414,21.36 -3.414,21.36 0,0 -4.075,7.93 -6.167,19.06 l -3.525,2.86 c -1.762,1.32 -4.515,3.52 -7.819,2.64 -3.305,-0.88 -3.965,-4.2 -2.754,-12.73 1.212,-8.52 2.974,-18.77 3.414,-22.07 0.441,-3.3 1.542,-4.74 3.965,-6.39 2.423,-1.65 5.177,-2.64 5.177,-2.64 0,0 2.973,-22.58 4.846,-25.33 1.872,-2.76 13.216,-15.31 25.661,-23.57 12.446,-8.26 25.992,-13.88 40.09,-13.55 14.097,0.33 21.917,4.52 25.111,6.39 3.194,1.87 22.468,17.73 26.102,20.7 3.635,2.98 6.718,7.82 8.04,15.97 1.322,8.15 2.643,20.71 2.643,20.71 0,0 7.82,3.62 8.481,6.33 0.661,2.7 1.652,21.09 1.652,26.6 0,5.51 0.44,10.13 -0.551,11.23" />
      <path
         id="path154"
         style="fill:#28292a;fill-opacity:1;fill-rule:nonzero;stroke:none;stroke-width:0.1"
         d="m 593.795,160.18 c 1.932,0.71 -7.843,-0.77 -11.191,-0.77 -3.347,0 -4.338,0.88 -4.449,0 -0.11,-0.88 9.032,-1.65 15.64,0.77" />
      <path
         id="path156"
         style="fill:#28292a;fill-opacity:1;fill-rule:nonzero;stroke:none;stroke-width:0.1"
         d="m 527.475,235.36 -7.699,-2.56 c 0,0 -5.697,24.9 -7.377,32.6 -1.68,7.7 -0.019,16.15 2.094,19.17 2.114,3.02 24.002,28.69 36.078,40.61 12.077,11.93 20.077,18.12 21.285,18.27 1.207,0.15 3.321,-4.68 3.321,-4.68 0,0 1.66,5.28 1.057,8.6 -0.604,3.32 -0.755,6.04 -0.755,6.04 0,0 9.359,-0.91 14.793,-10.27 0,0 0.604,5.14 -1.207,9.06 0,0 7.095,-1.21 11.774,-11.02 0,0 1.51,4.08 0,6.19 0,0 4.831,0.15 11.473,-8.45 0,0 2.264,1.81 4.226,-0.46 1.963,-2.26 21.285,-25.2 32.909,-47.24 0,0 6.793,-11.33 7.849,-13.29 1.057,-1.96 -3.17,-36.08 -4.378,-45.13 0,0 -4.981,2.11 -7.698,2.86 0,0 4.076,17.82 -2.113,35.03 0,0 -0.755,5.73 -12.077,1.96 -11.322,-3.78 -28.454,-7.7 -44.116,-6.95 -15.662,0.76 -41.173,7.1 -46.004,6.95 -4.83,-0.15 -15.246,-4.53 -15.85,-6.49 -0.604,-1.96 -0.604,-21.44 2.415,-30.8" />
      <path
         id="path158"
         style="fill:#28292a;fill-opacity:1;fill-rule:nonzero;stroke:none;stroke-width:0.1"
         d="m 557.126,214.56 -5.513,-5.26 2.239,7.26 c -0.713,0.22 -1.455,0.38 -2.239,0.38 -4.218,0 -7.637,-3.42 -7.637,-7.64 0,-4.22 3.419,-7.64 7.637,-7.64 4.217,0 7.635,3.42 7.635,7.64 0,2.05 -0.815,3.89 -2.122,5.26" />
      <path
         id="path160"
         style="fill:#28292a;fill-opacity:1;fill-rule:nonzero;stroke:none;stroke-width:0.1"
         d="m 624.969,214.56 -5.513,-5.26 2.24,7.26 c -0.713,0.22 -1.455,0.38 -2.24,0.38 -4.217,0 -7.636,-3.42 -7.636,-7.64 0,-4.22 3.419,-7.64 7.636,-7.64 4.217,0 7.636,3.42 7.636,7.64 0,2.05 -0.815,3.89 -2.123,5.26" />
    </g>
  </g>
</svg>
